<svg xmlns="http://www.w3.org/2000/svg" width="417" height="107" viewBox="0 0 417 107">
    <g fill="none" fill-rule="evenodd">
        <path fill="#A2DEAF" d="M98.814 3.315c2.825-.498 5.4.068 7.726 1.696 2.326 1.629 3.739 3.856 4.237 6.68l10.758 61.017c.499 2.825-.067 5.4-1.695 7.727-1.63 2.326-3.856 3.738-6.68 4.236l-88.136 15.54c-2.825.499-5.4-.067-7.726-1.695-2.327-1.629-3.739-3.856-4.237-6.68L2.302 30.818c-.498-2.825.068-5.4 1.696-7.727 1.629-2.326 3.856-3.738 6.68-4.236l88.136-15.54z"/>
        <path fill="#114E4E" d="M97.4 1.9c2.824-.497 5.4.068 7.726 1.697 2.326 1.628 3.738 3.855 4.236 6.68l10.759 61.017c.498 2.825-.067 5.4-1.696 7.726-1.629 2.326-3.855 3.738-6.68 4.236L23.609 98.797c-2.824.498-5.4-.067-7.726-1.696-2.326-1.629-3.738-3.855-4.236-6.68L.887 29.404c-.497-2.825.068-5.4 1.697-7.726 1.629-2.326 3.855-3.738 6.68-4.237L97.4 1.901z"/>
        <path fill="#FFF" d="M113.341 72.49l-10.759-61.017c-.174-.99-.635-1.745-1.383-2.269-.747-.523-1.615-.698-2.604-.524L10.46 24.221c-.99.174-1.745.635-2.269 1.383-.523.748-.698 1.616-.523 2.605l10.758 61.016c.175.99.636 1.745 1.383 2.269.748.523 1.616.698 2.605.523l88.135-15.54c.989-.174 1.745-.635 2.269-1.383.523-.748.698-1.616.523-2.605z"/>
        <path fill="#E17334" d="M78.997 61.07a2.49 2.49 0 0 1-1.932-.425 2.49 2.49 0 0 1-1.059-1.67l-.299-1.695a2.49 2.49 0 0 1 .424-1.931 2.49 2.49 0 0 1 1.67-1.06l22.034-3.885a2.49 2.49 0 0 1 1.932.424 2.49 2.49 0 0 1 1.059 1.67l.299 1.695a2.49 2.49 0 0 1-.424 1.932 2.49 2.49 0 0 1-1.67 1.059l-22.034 3.885zm-2.39-13.56a2.49 2.49 0 0 1-1.933-.424 2.49 2.49 0 0 1-1.059-1.67l-.298-1.695a2.49 2.49 0 0 1 .424-1.932 2.49 2.49 0 0 1 1.67-1.059l22.033-3.885a2.49 2.49 0 0 1 1.932.424 2.49 2.49 0 0 1 1.06 1.67l.298 1.695a2.49 2.49 0 0 1-.424 1.932 2.49 2.49 0 0 1-1.67 1.059L76.606 47.51zm-2.392-13.56a2.49 2.49 0 0 1-1.931-.423 2.49 2.49 0 0 1-1.06-1.67l-.298-1.695a2.49 2.49 0 0 1 .424-1.932 2.49 2.49 0 0 1 1.67-1.06l22.034-3.884a2.49 2.49 0 0 1 1.931.424 2.49 2.49 0 0 1 1.06 1.67l.298 1.695a2.49 2.49 0 0 1-.424 1.931 2.49 2.49 0 0 1-1.67 1.06L74.215 33.95z"/>
        <path fill="#A2DEAF" d="M56.766 51.445c3.871.483 7.082 2.174 9.632 5.074 1.86 2.293 3.028 4.781 3.501 7.465l.523 2.966c.448 2.542-.084 4.894-1.596 7.054s-3.54 3.464-6.082 3.912l-28.814 5.08c-2.542.449-4.893-.083-7.053-1.596-2.16-1.512-3.464-3.54-3.912-6.082l-.523-2.966c-.474-2.684-.228-5.421.736-8.212 1.405-3.598 3.843-6.285 7.316-8.063-3.09-2.659-4.984-5.966-5.68-9.92-.823-4.661.133-8.944 2.867-12.849 2.734-3.904 6.432-6.267 11.093-7.089 4.66-.822 8.943.134 12.848 2.868 3.904 2.734 6.267 6.432 7.09 11.093.697 3.954.048 7.71-1.946 11.265zM39.969 33c-2.825.498-5.052 1.91-6.68 4.236-1.63 2.326-2.194 4.901-1.696 7.726s1.91 5.052 4.236 6.68c2.326 1.63 4.901 2.195 7.726 1.697 2.825-.499 5.052-1.91 6.68-4.237 1.63-2.326 2.195-4.901 1.697-7.726-.498-2.825-1.91-5.052-4.237-6.68-2.326-1.63-4.901-2.194-7.726-1.696zm23.673 35.147l-.523-2.967c-.323-1.836-1.18-3.396-2.572-4.68-1.392-1.283-3.055-2.046-4.991-2.287l-4.673-.487c-1.828 1.196-3.872 1.994-6.132 2.392-2.26.399-4.453.349-6.58-.15l-4.225 2.055c-1.737.89-3.04 2.175-3.908 3.857-.868 1.682-1.14 3.441-.817 5.278l.523 2.966a2.49 2.49 0 0 0 1.06 1.67 2.49 2.49 0 0 0 1.93.424l28.814-5.08a2.49 2.49 0 0 0 1.67-1.06 2.49 2.49 0 0 0 .424-1.931zM396.564 85.468a7.168 7.168 0 0 1-.009-.352c0-1.245.293-2.33.877-3.254.585-.924 1.292-1.593 2.122-2.008a72.218 72.218 0 0 0 3.847-8.006 113.796 113.796 0 0 0 3.112-8.742l8.374-1.131c.189 4.828.51 10.052.962 15.672.189 2.263.283 3.904.283 4.923 0 2.3-.585 4.187-1.754 5.658-1.17 1.47-2.612 2.527-4.328 3.168-1.717.642-3.461.962-5.234.962-1.81 0-3.338-.349-4.583-1.047-1.245-.697-2.169-1.603-2.772-2.715a8.19 8.19 0 0 1-.146-.281c-2.103 2.47-4.752 3.704-7.945 3.704-1.547 0-2.801-.415-3.763-1.245-.962-.83-1.556-2.037-1.782-3.621-.981 1.509-2.16 2.753-3.537 3.734-1.376.98-2.989 1.471-4.837 1.471-2.15 0-3.942-.735-5.375-2.206-1.434-1.472-2.15-3.773-2.15-6.903 0-2.792.556-5.724 1.669-8.799 1.112-3.074 2.772-5.676 4.979-7.808 2.206-2.13 4.837-3.196 7.893-3.196 1.546 0 2.697.264 3.451.792.755.528 1.132 1.226 1.132 2.093v.227l2.772-13.014 8.374-1.132-6.507 30.554a7.003 7.003 0 0 0-.226 1.81c0 .755.18 1.292.538 1.613.358.32.952.48 1.782.48 1.056 0 1.97-.452 2.744-1.357l.037-.044zm-50.7 3.597c-.411.432-.837.803-1.278 1.115-2.056 1.452-4.12 2.178-6.195 2.178-1.585 0-2.858-.443-3.82-1.33-.961-.886-1.537-2.178-1.725-3.875-1.094 1.546-2.31 2.8-3.65 3.762-1.339.962-2.932 1.443-4.78 1.443-2.15 0-3.942-.735-5.376-2.206-1.062-1.09-1.73-2.636-2.005-4.637-3.695 4.562-8.043 6.843-13.045 6.843-2.791 0-4.96-.726-6.507-2.178-1.546-1.452-2.32-3.725-2.32-6.818 0-2.603.519-5.47 1.556-8.6 1.038-3.131 2.697-5.838 4.98-8.12 2.281-2.282 5.176-3.423 8.684-3.423 2.264 0 3.876.49 4.838 1.471.962.981 1.443 2.226 1.443 3.735 0 1.32-.283 2.338-.849 3.055-.566.717-1.282 1.075-2.15 1.075-.641 0-1.301-.226-1.98-.679.452-1.245.679-2.357.679-3.338 0-.717-.132-1.283-.396-1.698-.264-.415-.66-.622-1.189-.622-1.131 0-2.263.924-3.394 2.772-1.132 1.849-2.056 4.093-2.773 6.734-.716 2.64-1.075 5.016-1.075 7.129 0 1.848.32 3.102.962 3.762.641.66 1.679.99 3.112.99 2.037 0 3.781-.471 5.234-1.414 1.246-.81 2.598-1.98 4.053-3.513.07-2.62.624-5.362 1.661-8.228 1.113-3.074 2.773-5.676 4.98-7.808 2.206-2.13 4.837-3.196 7.892-3.196 1.547 0 2.697.264 3.452.792.754.528 1.131 1.226 1.131 2.093v.396l.623-2.999h8.147l-4.074 19.238a7.003 7.003 0 0 0-.226 1.81c0 1.622.773 2.433 2.32 2.433 1.056 0 1.97-.49 2.744-1.47.767-.973 1.376-2.243 1.828-3.809l3.858-18.202h8.148l-.736 3.508c1.283-1.131 2.443-1.999 3.48-2.602a6.58 6.58 0 0 1 3.367-.906c1.207 0 2.16.415 2.857 1.245.698.83 1.047 1.83 1.047 2.999a4.282 4.282 0 0 1-1.075 2.886c-.717.83-1.717 1.244-3 1.244-.829 0-1.385-.198-1.668-.594-.283-.396-.5-.971-.65-1.725-.114-.49-.227-.85-.34-1.075-.114-.227-.321-.34-.623-.34-.792 0-1.461.16-2.008.481-.547.32-1.255.877-2.122 1.67l-4.527 21.5h-8.147l.626-2.954zm-87.31-1.726c-.84 1.225-1.763 2.172-2.77 2.84-2.188 1.453-4.357 2.18-6.507 2.18-1.81 0-3.273-.567-4.385-1.698-.78-.793-1.287-1.864-1.52-3.213-.82 1.172-1.718 2.083-2.696 2.732-2.187 1.452-4.356 2.178-6.506 2.178-1.81 0-3.272-.566-4.385-1.697-1.113-1.132-1.67-2.83-1.67-5.093 0-.943.152-2.168.453-3.677l3.848-18.163h8.147l-4.073 19.238a7.003 7.003 0 0 0-.227 1.81c0 .755.18 1.292.538 1.613.358.32.952.48 1.782.48 1.094 0 2.112-.461 3.055-1.385.943-.925 1.622-2.122 2.037-3.593l6.054-28.347 8.374-1.132-6.507 30.554a7.003 7.003 0 0 0-.226 1.81c0 .755.18 1.292.538 1.613.358.32.952.48 1.782.48 1.094 0 2.112-.461 3.055-1.385a7.169 7.169 0 0 0 1.251-1.653c-.004-.154-.006-.31-.006-.47 0-2.602.51-5.469 1.528-8.6 1.018-3.13 2.678-5.837 4.979-8.119 2.3-2.282 5.224-3.423 8.77-3.423 4.149 0 6.224 1.81 6.224 5.432 0 2.112-.604 4.055-1.811 5.828-1.207 1.773-2.81 3.197-4.81 4.272a15.53 15.53 0 0 1-6.393 1.838c-.075.83-.113 1.396-.113 1.698 0 3.13 1.17 4.696 3.508 4.696 1.056 0 2.188-.283 3.395-.849a13.7 13.7 0 0 0 3.281-2.15c-1.018 5.583-4.28 8.374-9.788 8.374-2.754 0-4.904-.726-6.45-2.178-.784-.736-1.37-1.683-1.756-2.84zM215.823 71.26l1.995-9.455c1.018-4.678 2.716-7.874 5.092-9.59 2.377-1.717 5.092-2.575 8.148-2.575 2.829 0 5.224.471 7.186 1.415 1.961.943 2.942 2.64 2.942 5.092 0 1.584-.425 2.744-1.273 3.48-.85.735-1.915 1.103-3.197 1.103-.98 0-1.792-.236-2.433-.708-.641-.471-.962-1.254-.962-2.348 0-.716.18-1.358.538-1.923.358-.566.82-.849 1.386-.849.264 0 .415.019.452.057-.037-.755-.33-1.32-.877-1.698-.547-.377-1.291-.566-2.235-.566-1.66 0-2.989.604-3.988 1.81-1 1.208-1.67 2.736-2.009 4.584l-.962 4.64h4.527l-.453 2.263h-4.527l-6.45 30.553c-.754 3.546-2.055 6.035-3.904 7.469-1.848 1.433-3.866 2.15-6.054 2.15-2.074 0-3.762-.575-5.064-1.726-1.301-1.15-1.952-2.688-1.952-4.611 0-1.585.453-2.886 1.358-3.904.905-1.019 2.018-1.83 3.338-2.433 1.32-.604 3.018-1.245 5.093-1.924l3.734-17.697a22.588 22.588 0 0 1-4.866 1.345c-.302 3.433-1.075 6.432-2.32 8.997-1.245 2.565-2.848 4.545-4.81 5.94-1.96 1.396-4.092 2.094-6.393 2.094-2.791 0-4.998-.717-6.62-2.15-1.622-1.433-2.433-3.697-2.433-6.79 0-2.565.529-5.413 1.585-8.543 1.056-3.131 2.753-5.838 5.092-8.12 2.339-2.282 5.28-3.423 8.826-3.423 4.829 0 7.243 3.018 7.243 9.053v.057c.113.037.32.056.622.056 1.245 0 2.678-.33 4.3-.99.11-.044.217-.09.325-.135zm-70.654-9.625h8.147l-.905 4.244c1.886-1.622 4.093-2.433 6.62-2.433 2.112 0 3.791.697 5.036 2.093 1.245 1.396 1.867 3.678 1.867 6.846 0 2.98-.434 5.988-1.301 9.025-.868 3.036-2.34 5.62-4.414 7.751-2.074 2.132-4.809 3.197-8.204 3.197-2.414 0-4.017-.679-4.81-2.037l-2.941 13.806-8.544 2.037 9.449-44.529zm26.027 2.093h8.147l-.735 3.508c1.282-1.131 2.442-1.999 3.48-2.602a6.58 6.58 0 0 1 3.366-.906c1.207 0 2.16.415 2.857 1.245.698.83 1.047 1.83 1.047 2.999a4.282 4.282 0 0 1-1.075 2.886c-.717.83-1.716 1.244-2.999 1.244-.83 0-1.386-.198-1.669-.594-.283-.396-.5-.971-.65-1.725-.114-.49-.227-.85-.34-1.075-.113-.227-.32-.34-.622-.34-.792 0-1.462.16-2.009.481-.547.32-1.254.877-2.122 1.67l-4.526 21.5h-8.148l5.998-28.29zm110.388 11.26H292.9l-.962 4.47h-11.372l1.018-4.47zM150.261 87.436c1.81 0 3.31-.849 4.498-2.546 1.188-1.698 2.056-3.725 2.603-6.083.547-2.357.82-4.555.82-6.591 0-3.131-.943-4.697-2.829-4.697-.679 0-1.367.246-2.065.736s-1.31 1.17-1.839 2.037l-3.338 15.842c.302.868 1.019 1.302 2.15 1.302zm48.886-.283c.905 0 1.81-.519 2.715-1.556.906-1.038 1.698-2.452 2.377-4.244.679-1.791 1.17-3.781 1.47-5.969-1.018-.226-1.527-1.018-1.527-2.376 0-1.547.585-2.565 1.754-3.056-.075-1.244-.264-2.103-.566-2.574-.301-.472-.83-.707-1.584-.707-1.245 0-2.452.905-3.621 2.716-1.17 1.81-2.112 3.979-2.829 6.506-.717 2.528-1.075 4.753-1.075 6.677 0 1.81.207 3.027.622 3.65.415.622 1.17.933 2.264.933zm8.034 13.975c.641 0 1.273-.358 1.895-1.075.623-.717 1.085-1.83 1.387-3.338l.679-3.282c-1.924.604-3.452 1.368-4.583 2.292-1.132.924-1.698 1.97-1.698 3.14 0 .83.264 1.414.792 1.754.528.34 1.038.51 1.528.51zm59.692-23.254c1.434-.038 2.782-.51 4.046-1.415 1.263-.905 2.282-2.065 3.055-3.48.773-1.414 1.16-2.895 1.16-4.441 0-1.547-.472-2.32-1.415-2.32-1.32 0-2.63 1.198-3.932 3.593-1.301 2.395-2.273 5.083-2.914 8.063zm61.22 8.996c.943 0 1.877-.443 2.8-1.33.925-.886 1.557-2.103 1.896-3.65l2.716-12.786c0-.49-.189-.972-.566-1.443-.377-.472-.962-.707-1.754-.707-1.509 0-2.866.877-4.073 2.63-1.208 1.755-2.15 3.867-2.83 6.338-.678 2.47-1.018 4.649-1.018 6.535 0 1.886.274 3.093.82 3.62.547.529 1.217.793 2.01.793zm51.035 0c.906 0 1.82-.415 2.745-1.245.924-.83 1.556-1.98 1.895-3.451v-.283l2.773-12.957c-.34-1.32-1.113-1.98-2.32-1.98-1.51 0-2.867.877-4.074 2.63-1.207 1.755-2.15 3.867-2.83 6.338-.678 2.47-1.018 4.649-1.018 6.535 0 1.886.274 3.093.82 3.62.548.529 1.217.793 2.01.793zm23.877 1.018c1.396 0 2.565-.415 3.508-1.244.943-.83 1.415-2.17 1.415-4.018 0-1.131-.113-2.716-.34-4.752-.377-4.3-.622-7.186-.735-8.657-.905 2.98-2.433 6.544-4.583 10.693.867.453 1.301 1.113 1.301 1.98 0 .717-.236 1.359-.707 1.925-.472.565-1.066.848-1.782.848-.792 0-1.302-.245-1.528-.735 0 1.358.273 2.357.82 2.998.547.642 1.424.962 2.631.962zM309.658 39.454c-.726 1.165-1.494 2.062-2.306 2.689-1.829 1.414-3.724 2.122-5.686 2.122-2.3 0-3.989-.613-5.064-1.84-1.075-1.225-1.612-2.743-1.612-4.554 0-.792.094-1.688.283-2.687.188-1 .386-1.971.594-2.914.207-.943.349-1.547.424-1.81.302-1.321.585-2.622.849-3.905.264-1.282.396-2.32.396-3.112 0-1.924-.68-2.885-2.037-2.885-.98 0-1.848.48-2.603 1.442-.754.962-1.358 2.216-1.81 3.763l-3.848 18.162h-8.147l4.13-19.52a5.81 5.81 0 0 0 .17-1.414c0-1.66-.566-2.49-1.698-2.49-1.056 0-1.97.48-2.744 1.443-.773.962-1.386 2.235-1.839 3.819l-3.847 18.162h-8.148l3.837-18.1a22.655 22.655 0 0 1-4.742 1.296c-.302 3.432-1.075 6.431-2.32 8.996-1.245 2.565-2.848 4.545-4.81 5.941-1.96 1.396-4.092 2.094-6.393 2.094-2.791 0-4.998-.717-6.62-2.15-1.31-1.159-2.092-2.86-2.343-5.102a34.1 34.1 0 0 1-5.578 3.97c-1.094 1.17-2.442 2.027-4.045 2.574-1.603.547-3.216.82-4.838.82-1.81 0-3.338-.348-4.583-1.046-1.245-.698-2.169-1.603-2.772-2.716a7.507 7.507 0 0 1-.722-1.88c-3.465 3.762-7.467 5.643-12.009 5.643-2.791 0-4.96-.726-6.507-2.179-1.546-1.452-2.32-3.724-2.32-6.818 0-2.602.51-5.469 1.528-8.6 1.019-3.13 2.678-5.837 4.98-8.119 2.3-2.282 5.223-3.423 8.77-3.423 4.148 0 6.223 1.81 6.223 5.432 0 2.112-.604 4.054-1.81 5.827-1.208 1.773-2.81 3.197-4.81 4.272a15.53 15.53 0 0 1-6.393 1.839c-.076 1.132-.114 1.886-.114 2.263 0 1.849.321 3.103.962 3.763.641.66 1.679.99 3.112.99 2.037 0 3.782-.472 5.234-1.415.978-.635 2.021-1.493 3.129-2.574a5.503 5.503 0 0 1 .718-1.754c.585-.924 1.292-1.594 2.122-2.009a72.218 72.218 0 0 0 3.847-8.006 113.796 113.796 0 0 0 3.112-8.741l8.374-1.132c.189 4.828.51 10.052.962 15.673.189 2.263.283 3.904.283 4.922 0 .868-.075 1.585-.226 2.15 1.333-.766 2.432-1.49 3.296-2.17.093-2.365.616-4.961 1.57-7.788 1.056-3.13 2.753-5.837 5.092-8.119 2.339-2.282 5.28-3.423 8.826-3.423 4.829 0 7.243 3.017 7.243 9.053v.056c.113.038.32.057.622.057 1.245 0 2.678-.33 4.3-.99l.203-.084 1.608-7.583h8.147l-.622 2.942c1.924-2.15 4.225-3.225 6.903-3.225 3.32 0 5.262 1.622 5.827 4.866 2.075-3.206 4.697-4.81 7.865-4.81 1.924 0 3.452.529 4.583 1.585 1.132 1.056 1.698 2.66 1.698 4.81 0 1.093-.132 2.31-.396 3.649a93.928 93.928 0 0 1-1.132 4.894 98.715 98.715 0 0 0-.82 3.423c-.246 1.113-.368 1.99-.368 2.631 0 .754.17 1.34.509 1.754.34.415.924.622 1.754.622 1.132 0 2.037-.405 2.716-1.216.416-.497.831-1.16 1.247-1.988-.002-.1-.002-.202-.002-.304 0-2.602.509-5.469 1.527-8.6 1.019-3.13 2.678-5.837 4.98-8.119 2.3-2.282 5.224-3.423 8.77-3.423 4.148 0 6.223 1.81 6.223 5.432 0 2.112-.603 4.054-1.81 5.827-1.208 1.773-2.81 3.197-4.81 4.272a15.53 15.53 0 0 1-6.393 1.839c-.076.83-.114 1.396-.114 1.697 0 3.131 1.17 4.697 3.508 4.697 1.057 0 2.188-.283 3.395-.85a13.7 13.7 0 0 0 3.282-2.15c-1.019 5.583-4.281 8.375-9.788 8.375-2.754 0-4.904-.726-6.45-2.179-.737-.691-1.298-1.568-1.684-2.632zM136.225 50.375c-1.395 0-2.621-.113-3.677-.34-1.057-.225-1.971-.772-2.745-1.64-.773-.867-1.16-2.207-1.16-4.017 0-2.527.764-5.922 2.292-10.185 1.528-4.262 3.536-8.543 6.026-12.843-1.886.113-3.376.396-4.47.848-1.094.453-1.81 1.15-2.15 2.094.15 0 .311.188.48.566.17.377.255.773.255 1.188 0 .679-.301 1.216-.905 1.612-.603.396-1.358.594-2.263.594-1.056 0-1.905-.282-2.546-.848-.641-.566-.962-1.377-.962-2.433 0-1.283.5-2.452 1.5-3.508.999-1.056 2.385-1.896 4.158-2.518 1.773-.622 3.734-.934 5.884-.934.793 0 1.773.057 2.943.17 3.093-4.903 6.365-8.911 9.816-12.023 3.452-3.112 6.743-4.668 9.874-4.668 1.81 0 3.3.264 4.47.792l-8.884 41.643h-8.147l4.356-20.538c-1.395-.642-2.678-1.113-3.847-1.415a22.686 22.686 0 0 0-3.734-.622 96.53 96.53 0 0 0-5.29 14.23c-1.377 4.847-2.066 8.722-2.066 11.627 0 1.433.264 2.49.792 3.168zm31.063-6.11c-1.81 0-3.272-.566-4.385-1.698-1.113-1.131-1.67-2.829-1.67-5.092 0-.943.152-2.169.453-3.678l3.848-18.162h8.147l-4.073 19.237a5.81 5.81 0 0 0-.17 1.415c0 1.66.566 2.49 1.697 2.49 1.057 0 1.962-.444 2.716-1.33.755-.887 1.358-2.103 1.81-3.65l3.848-18.162h8.148l-4.074 19.237c-.189.943-.283 1.622-.283 2.037 0 1.245.641 1.867 1.924 1.867 1.735 0 3.347-1.093 4.837-3.281 1.49-2.188 2.688-4.79 3.593-7.808.906-3.018 1.358-5.62 1.358-7.808-.075.188-.32.33-.735.424a4.956 4.956 0 0 1-1.075.141c-.642 0-1.141-.301-1.5-.905a3.808 3.808 0 0 1-.537-1.98c0-.905.292-1.641.877-2.207.584-.566 1.461-.849 2.63-.849 1.246 0 2.15.463 2.717 1.387.565.924.848 2.103.848 3.536 0 3.395-.584 7.025-1.754 10.892-1.169 3.866-2.96 7.157-5.375 9.873-2.414 2.716-5.413 4.074-8.996 4.074-1.848 0-3.357-.396-4.527-1.188-1.169-.793-1.923-1.98-2.263-3.565-2.112 3.168-4.79 4.753-8.034 4.753zM154.16 5.507c-1.622.868-3.31 2.48-5.064 4.838-1.754 2.357-3.46 5.215-5.12 8.572 2.716.528 5.017 1.188 6.903 1.98l3.281-15.39zm53.13 24.273c1.395-.075 2.724-.566 3.988-1.47a10.361 10.361 0 0 0 3.055-3.452c.774-1.396 1.16-2.867 1.16-4.414 0-1.546-.471-2.32-1.414-2.32-1.358 0-2.688 1.189-3.99 3.565-1.3 2.377-2.234 5.074-2.8 8.091zm18.161 10.015c1.396 0 2.565-.415 3.508-1.245.943-.83 1.415-2.169 1.415-4.017 0-1.132-.113-2.716-.34-4.753-.377-4.3-.622-7.186-.735-8.657-.905 2.98-2.433 6.545-4.583 10.694.867.453 1.301 1.113 1.301 1.98 0 .717-.236 1.358-.707 1.924-.472.566-1.066.849-1.782.849-.792 0-1.302-.245-1.528-.736 0 1.358.274 2.358.82 2.999.547.641 1.424.962 2.631.962zm27.498-.736c.906 0 1.811-.518 2.716-1.556.906-1.037 1.698-2.451 2.377-4.243.679-1.792 1.169-3.782 1.47-5.97-1.018-.226-1.527-1.018-1.527-2.376 0-1.546.585-2.565 1.754-3.055-.075-1.245-.264-2.103-.566-2.574-.301-.472-.83-.708-1.584-.708-1.245 0-2.452.906-3.621 2.716-1.17 1.81-2.112 3.98-2.83 6.507-.716 2.527-1.074 4.753-1.074 6.676 0 1.81.207 3.027.622 3.65.415.622 1.17.933 2.263.933zm64.955-9.279c1.433-.038 2.782-.51 4.045-1.414 1.264-.906 2.282-2.066 3.055-3.48.774-1.415 1.16-2.895 1.16-4.442 0-1.546-.471-2.32-1.414-2.32-1.32 0-2.631 1.198-3.932 3.593-1.302 2.396-2.273 5.083-2.914 8.063z"/>
        <path fill="#114E4E" d="M395.146 84.05a7.168 7.168 0 0 1-.009-.352c0-1.245.293-2.329.877-3.253.585-.924 1.292-1.594 2.122-2.009a72.218 72.218 0 0 0 3.847-8.006 113.796 113.796 0 0 0 3.112-8.742l8.374-1.131c.189 4.828.51 10.052.962 15.673.189 2.263.283 3.904.283 4.922 0 2.301-.585 4.187-1.754 5.658-1.17 1.471-2.612 2.527-4.328 3.169-1.717.64-3.461.962-5.234.962-1.81 0-3.338-.35-4.583-1.047-1.245-.698-2.169-1.603-2.773-2.716a8.19 8.19 0 0 1-.145-.28c-2.103 2.469-4.752 3.703-7.945 3.703-1.547 0-2.801-.415-3.763-1.245-.962-.83-1.556-2.037-1.782-3.62-.981 1.508-2.16 2.753-3.537 3.733-1.376.981-2.989 1.472-4.837 1.472-2.15 0-3.942-.736-5.375-2.207-1.434-1.471-2.15-3.772-2.15-6.903 0-2.791.556-5.724 1.669-8.798 1.112-3.074 2.772-5.677 4.979-7.808 2.206-2.131 4.837-3.197 7.893-3.197 1.546 0 2.697.264 3.451.792.755.528 1.132 1.226 1.132 2.094v.226l2.772-13.014 8.374-1.131-6.507 30.553a7.003 7.003 0 0 0-.226 1.81c0 .755.18 1.293.537 1.613.359.32.953.481 1.783.481 1.056 0 1.97-.452 2.744-1.358l.037-.043zm-50.7 3.597c-.411.432-.837.804-1.278 1.115-2.056 1.452-4.12 2.179-6.195 2.179-1.585 0-2.858-.444-3.82-1.33-.961-.887-1.537-2.178-1.725-3.876-1.094 1.547-2.31 2.8-3.65 3.763-1.339.962-2.932 1.443-4.78 1.443-2.15 0-3.942-.736-5.376-2.207-1.062-1.09-1.73-2.635-2.006-4.636-3.694 4.562-8.042 6.843-13.044 6.843-2.791 0-4.96-.727-6.507-2.179-1.546-1.452-2.32-3.725-2.32-6.818 0-2.602.519-5.47 1.556-8.6 1.038-3.13 2.697-5.837 4.98-8.12 2.281-2.281 5.176-3.422 8.684-3.422 2.264 0 3.876.49 4.838 1.47.962.981 1.443 2.226 1.443 3.735 0 1.32-.283 2.339-.849 3.055-.566.717-1.282 1.075-2.15 1.075-.641 0-1.301-.226-1.98-.679.452-1.244.679-2.357.679-3.338 0-.716-.132-1.282-.396-1.697-.264-.415-.66-.623-1.189-.623-1.131 0-2.263.925-3.394 2.773-1.132 1.848-2.056 4.092-2.773 6.733-.716 2.64-1.075 5.017-1.075 7.129 0 1.848.32 3.103.962 3.763.641.66 1.679.99 3.112.99 2.037 0 3.781-.472 5.234-1.415 1.246-.81 2.597-1.98 4.053-3.513.07-2.62.624-5.362 1.661-8.227 1.113-3.074 2.773-5.677 4.98-7.808 2.206-2.131 4.837-3.197 7.892-3.197 1.547 0 2.697.264 3.452.792.754.528 1.131 1.226 1.131 2.094v.396l.623-3h8.147l-4.074 19.238a7.003 7.003 0 0 0-.226 1.81c0 1.623.773 2.434 2.32 2.434 1.056 0 1.97-.49 2.744-1.471.767-.973 1.376-2.242 1.828-3.809l3.858-18.201h8.148l-.736 3.508c1.283-1.132 2.443-2 3.48-2.603a6.58 6.58 0 0 1 3.367-.905c1.207 0 2.16.415 2.857 1.245.698.83 1.047 1.83 1.047 2.998a4.282 4.282 0 0 1-1.075 2.886c-.717.83-1.717 1.245-3 1.245-.829 0-1.385-.198-1.668-.594-.283-.396-.5-.972-.65-1.726-.114-.49-.227-.849-.34-1.075-.114-.226-.321-.34-.623-.34-.792 0-1.461.16-2.008.481-.547.321-1.255.877-2.122 1.67l-4.527 21.5h-8.147l.626-2.954zm-87.31-1.725c-.84 1.224-1.763 2.171-2.77 2.84-2.188 1.452-4.357 2.179-6.507 2.179-1.81 0-3.273-.566-4.385-1.698-.78-.793-1.287-1.864-1.52-3.213-.82 1.173-1.718 2.083-2.696 2.732-2.187 1.452-4.356 2.179-6.506 2.179-1.81 0-3.273-.566-4.385-1.698-1.113-1.132-1.67-2.829-1.67-5.092 0-.943.151-2.169.453-3.678l3.848-18.162h8.147l-4.073 19.237a7.003 7.003 0 0 0-.227 1.81c0 .755.18 1.293.538 1.613.358.32.952.481 1.782.481 1.094 0 2.112-.462 3.055-1.386.943-.924 1.622-2.122 2.037-3.593l6.054-28.347 8.374-1.131-6.507 30.553a7.003 7.003 0 0 0-.226 1.81c0 .755.18 1.293.538 1.613.358.32.952.481 1.782.481 1.094 0 2.112-.462 3.055-1.386a7.169 7.169 0 0 0 1.251-1.653c-.004-.154-.006-.31-.006-.469 0-2.602.51-5.47 1.528-8.6s2.678-5.837 4.979-8.12c2.3-2.281 5.224-3.422 8.77-3.422 4.149 0 6.224 1.81 6.224 5.431 0 2.113-.604 4.055-1.811 5.828-1.207 1.773-2.81 3.197-4.81 4.272a15.53 15.53 0 0 1-6.393 1.839c-.075.83-.113 1.395-.113 1.697 0 3.131 1.17 4.696 3.508 4.696 1.056 0 2.188-.283 3.395-.848a13.7 13.7 0 0 0 3.281-2.15c-1.018 5.582-4.28 8.374-9.788 8.374-2.754 0-4.904-.727-6.45-2.179-.784-.736-1.37-1.683-1.756-2.84zm-42.731-16.08l1.995-9.455c1.018-4.677 2.716-7.874 5.092-9.59 2.377-1.716 5.092-2.575 8.148-2.575 2.829 0 5.224.472 7.185 1.415 1.962.943 2.943 2.64 2.943 5.092 0 1.584-.425 2.744-1.273 3.48-.85.735-1.915 1.103-3.197 1.103-.98 0-1.792-.236-2.433-.707-.641-.472-.962-1.254-.962-2.348 0-.717.18-1.358.538-1.924.358-.566.82-.849 1.386-.849.264 0 .415.02.452.057-.037-.754-.33-1.32-.877-1.697-.547-.378-1.292-.566-2.235-.566-1.66 0-2.989.603-3.988 1.81-1 1.207-1.67 2.735-2.01 4.583l-.96 4.64h4.526l-.453 2.263h-4.527l-6.45 30.553c-.754 3.546-2.055 6.036-3.904 7.47-1.848 1.432-3.866 2.15-6.054 2.15-2.074 0-3.762-.576-5.064-1.727-1.301-1.15-1.952-2.687-1.952-4.61 0-1.585.453-2.886 1.358-3.905.905-1.018 2.018-1.83 3.338-2.433 1.32-.603 3.018-1.245 5.093-1.924l3.734-17.697a22.588 22.588 0 0 1-4.866 1.346c-.302 3.432-1.075 6.431-2.32 8.996-1.245 2.565-2.848 4.545-4.81 5.94-1.96 1.397-4.092 2.094-6.393 2.094-2.791 0-4.998-.716-6.62-2.15-1.622-1.433-2.433-3.696-2.433-6.79 0-2.564.529-5.412 1.585-8.543 1.056-3.13 2.753-5.837 5.092-8.12 2.339-2.281 5.28-3.422 8.826-3.422 4.829 0 7.243 3.017 7.243 9.053v.056c.113.038.32.057.622.057 1.245 0 2.678-.33 4.3-.99l.325-.135zm-70.654-9.625h8.147l-.905 4.244c1.886-1.622 4.093-2.433 6.62-2.433 2.112 0 3.79.698 5.036 2.093 1.244 1.396 1.867 3.678 1.867 6.847 0 2.98-.434 5.988-1.301 9.024-.868 3.037-2.34 5.62-4.414 7.752-2.074 2.13-4.81 3.197-8.204 3.197-2.414 0-4.017-.68-4.81-2.037l-2.941 13.805-8.544 2.037 9.449-44.529zm26.027 2.094h8.147l-.735 3.508c1.282-1.132 2.442-2 3.48-2.603a6.58 6.58 0 0 1 3.366-.905c1.207 0 2.16.415 2.857 1.245.698.83 1.047 1.83 1.047 2.998a4.282 4.282 0 0 1-1.075 2.886c-.717.83-1.716 1.245-2.999 1.245-.83 0-1.386-.198-1.669-.594-.283-.396-.5-.972-.65-1.726-.114-.49-.227-.849-.34-1.075-.113-.226-.32-.34-.622-.34-.792 0-1.462.16-2.009.481-.547.321-1.254.877-2.122 1.67l-4.526 21.5h-8.148l5.998-28.29zm110.388 11.26h11.316l-.962 4.47h-11.372l1.018-4.47zM148.843 86.017c1.81 0 3.31-.849 4.498-2.546 1.188-1.698 2.056-3.725 2.603-6.082.547-2.358.82-4.555.82-6.592 0-3.13-.943-4.696-2.829-4.696-.679 0-1.367.245-2.065.735s-1.31 1.17-1.839 2.037l-3.338 15.843c.302.867 1.018 1.301 2.15 1.301zm48.885-.283c.906 0 1.811-.519 2.716-1.556.906-1.037 1.698-2.452 2.377-4.243.679-1.792 1.169-3.782 1.47-5.97-1.018-.226-1.527-1.018-1.527-2.376 0-1.546.585-2.565 1.754-3.055-.075-1.245-.264-2.103-.566-2.575-.301-.471-.83-.707-1.584-.707-1.245 0-2.452.905-3.621 2.716-1.17 1.81-2.112 3.98-2.83 6.507-.716 2.527-1.074 4.752-1.074 6.676 0 1.81.207 3.027.622 3.65.415.622 1.17.933 2.263.933zm8.035 13.975c.641 0 1.273-.358 1.895-1.075.623-.716 1.085-1.829 1.387-3.338l.679-3.281c-1.924.603-3.452 1.367-4.583 2.291-1.132.924-1.698 1.97-1.698 3.14 0 .83.264 1.415.792 1.754.528.34 1.038.51 1.528.51zm59.692-23.254c1.434-.038 2.782-.51 4.046-1.415 1.263-.905 2.282-2.065 3.055-3.48.773-1.414 1.16-2.894 1.16-4.44 0-1.547-.472-2.32-1.415-2.32-1.32 0-2.63 1.197-3.932 3.592-1.301 2.396-2.273 5.083-2.914 8.063zm61.22 8.996c.943 0 1.877-.443 2.8-1.33.925-.886 1.557-2.102 1.896-3.649l2.716-12.787c0-.49-.189-.971-.566-1.443-.377-.471-.962-.707-1.754-.707-1.509 0-2.866.877-4.074 2.63-1.207 1.755-2.15 3.867-2.829 6.338-.679 2.47-1.018 4.649-1.018 6.535 0 1.886.273 3.093.82 3.621.547.528 1.217.792 2.009.792zm51.035 0c.906 0 1.82-.415 2.745-1.245.924-.83 1.556-1.98 1.895-3.45v-.284l2.772-12.957c-.339-1.32-1.112-1.98-2.32-1.98-1.508 0-2.866.877-4.073 2.63-1.207 1.755-2.15 3.867-2.83 6.338-.678 2.47-1.018 4.649-1.018 6.535 0 1.886.274 3.093.82 3.621.548.528 1.217.792 2.01.792zm23.877 1.019c1.396 0 2.565-.415 3.508-1.245.943-.83 1.415-2.169 1.415-4.017 0-1.132-.113-2.716-.34-4.753-.377-4.3-.622-7.186-.735-8.657-.905 2.98-2.433 6.545-4.583 10.694.867.452 1.301 1.113 1.301 1.98 0 .717-.236 1.358-.707 1.924-.472.566-1.066.849-1.782.849-.793 0-1.302-.246-1.528-.736 0 1.358.273 2.358.82 2.999.547.641 1.424.962 2.631.962zM308.244 38.037c-.726 1.165-1.494 2.061-2.306 2.688-1.83 1.415-3.725 2.122-5.686 2.122-2.3 0-3.989-.613-5.064-1.839-1.075-1.226-1.612-2.744-1.612-4.554 0-.792.094-1.688.282-2.688.189-1 .387-1.97.595-2.914.207-.943.348-1.546.424-1.81.302-1.32.585-2.622.849-3.904.264-1.283.396-2.32.396-3.112 0-1.924-.68-2.886-2.037-2.886-.981 0-1.849.481-2.603 1.443-.754.962-1.358 2.216-1.81 3.762l-3.848 18.163h-8.148l4.13-19.52a5.81 5.81 0 0 0 .17-1.415c0-1.66-.565-2.49-1.697-2.49-1.056 0-1.97.481-2.744 1.443-.773.962-1.386 2.235-1.839 3.82l-3.847 18.162H263.7l3.837-18.1a22.655 22.655 0 0 1-4.742 1.295c-.302 3.433-1.075 6.432-2.32 8.997-1.245 2.565-2.848 4.545-4.81 5.94-1.96 1.396-4.092 2.094-6.393 2.094-2.791 0-4.998-.717-6.62-2.15-1.31-1.158-2.092-2.859-2.343-5.102a34.1 34.1 0 0 1-5.578 3.97c-1.094 1.17-2.442 2.028-4.045 2.575-1.604.547-3.216.82-4.838.82-1.81 0-3.338-.349-4.583-1.046-1.245-.698-2.169-1.604-2.773-2.716a7.507 7.507 0 0 1-.722-1.88c-3.464 3.762-7.466 5.642-12.008 5.642-2.791 0-4.96-.726-6.507-2.178-1.546-1.452-2.32-3.725-2.32-6.818 0-2.603.51-5.47 1.528-8.6 1.018-3.131 2.678-5.837 4.98-8.12 2.3-2.282 5.223-3.423 8.77-3.423 4.148 0 6.223 1.81 6.223 5.432 0 2.112-.604 4.055-1.81 5.828-1.208 1.773-2.81 3.197-4.81 4.272a15.53 15.53 0 0 1-6.394 1.839c-.075 1.131-.113 1.886-.113 2.263 0 1.848.32 3.102.962 3.762.641.66 1.679.99 3.112.99 2.037 0 3.781-.471 5.234-1.414.978-.636 2.021-1.494 3.128-2.575a5.503 5.503 0 0 1 .72-1.753c.584-.925 1.291-1.594 2.12-2.009a72.218 72.218 0 0 0 3.848-8.006 113.796 113.796 0 0 0 3.112-8.742l8.374-1.131c.189 4.828.51 10.052.962 15.672.189 2.264.283 3.904.283 4.923 0 .867-.075 1.584-.226 2.15 1.333-.766 2.432-1.49 3.296-2.17.093-2.366.616-4.962 1.57-7.788 1.056-3.131 2.753-5.837 5.092-8.12 2.338-2.282 5.28-3.423 8.826-3.423 4.829 0 7.243 3.018 7.243 9.053v.057c.113.038.32.056.622.056 1.245 0 2.678-.33 4.3-.99l.203-.083 1.608-7.583h8.147l-.622 2.942c1.924-2.15 4.224-3.225 6.903-3.225 3.319 0 5.262 1.622 5.827 4.866 2.075-3.207 4.697-4.81 7.865-4.81 1.924 0 3.451.528 4.583 1.585 1.132 1.056 1.697 2.659 1.697 4.809 0 1.094-.132 2.31-.396 3.65a93.928 93.928 0 0 1-1.131 4.893 98.715 98.715 0 0 0-.82 3.424c-.246 1.112-.368 1.99-.368 2.63 0 .755.17 1.34.509 1.755.34.415.924.622 1.754.622 1.131 0 2.037-.406 2.716-1.217.415-.496.831-1.159 1.247-1.988-.002-.1-.003-.201-.003-.303 0-2.603.51-5.47 1.528-8.6 1.019-3.131 2.678-5.837 4.98-8.12 2.3-2.282 5.223-3.423 8.77-3.423 4.148 0 6.223 1.81 6.223 5.432 0 2.112-.604 4.055-1.81 5.828-1.208 1.773-2.81 3.197-4.81 4.272a15.53 15.53 0 0 1-6.393 1.839c-.076.83-.114 1.395-.114 1.697 0 3.13 1.17 4.696 3.508 4.696 1.056 0 2.188-.283 3.395-.849a13.7 13.7 0 0 0 3.282-2.15c-1.019 5.583-4.281 8.374-9.789 8.374-2.753 0-4.903-.726-6.45-2.178-.736-.691-1.297-1.569-1.683-2.632zm-173.433 10.92c-1.395 0-2.621-.112-3.678-.339-1.056-.226-1.97-.773-2.744-1.64-.773-.868-1.16-2.207-1.16-4.018 0-2.527.764-5.922 2.292-10.184 1.528-4.262 3.536-8.544 6.026-12.844-1.886.113-3.376.396-4.47.849-1.094.453-1.81 1.15-2.15 2.093.15 0 .311.189.48.566.17.377.255.773.255 1.188 0 .68-.301 1.217-.905 1.613-.603.396-1.358.594-2.263.594-1.056 0-1.905-.283-2.546-.849-.641-.565-.962-1.376-.962-2.433 0-1.282.5-2.451 1.5-3.508.999-1.056 2.385-1.895 4.158-2.517 1.773-.623 3.734-.934 5.884-.934.792 0 1.773.057 2.942.17 3.094-4.904 6.366-8.912 9.817-12.024C150.74 1.628 154.03.073 157.16.073c1.811 0 3.3.264 4.47.792l-8.883 41.643H144.6l4.356-20.539c-1.395-.641-2.678-1.113-3.847-1.414a22.686 22.686 0 0 0-3.734-.623 96.53 96.53 0 0 0-5.29 14.23c-1.378 4.847-2.066 8.723-2.066 11.627 0 1.434.264 2.49.792 3.169zm31.063-6.11c-1.81 0-3.272-.566-4.385-1.697-1.113-1.132-1.67-2.83-1.67-5.092 0-.943.152-2.17.453-3.678l3.848-18.162h8.147l-4.073 19.237a5.81 5.81 0 0 0-.17 1.414c0 1.66.566 2.49 1.697 2.49 1.056 0 1.962-.443 2.716-1.33.755-.886 1.358-2.103 1.81-3.65l3.848-18.161h8.148l-4.074 19.237c-.189.943-.283 1.622-.283 2.037 0 1.245.641 1.867 1.924 1.867 1.735 0 3.347-1.094 4.837-3.282 1.49-2.187 2.688-4.79 3.593-7.808.905-3.017 1.358-5.62 1.358-7.808-.075.189-.32.33-.735.424a4.956 4.956 0 0 1-1.075.142c-.642 0-1.141-.302-1.5-.905a3.808 3.808 0 0 1-.537-1.98c0-.906.292-1.641.877-2.207.584-.566 1.461-.849 2.63-.849 1.245 0 2.15.462 2.717 1.386.565.924.848 2.103.848 3.536 0 3.395-.584 7.026-1.754 10.892-1.17 3.867-2.96 7.158-5.375 9.873-2.414 2.716-5.413 4.074-8.996 4.074-1.848 0-3.357-.396-4.527-1.188-1.169-.792-1.923-1.98-2.263-3.564-2.112 3.168-4.79 4.752-8.034 4.752zM152.747 4.09c-1.622.867-3.31 2.48-5.064 4.837-1.754 2.358-3.46 5.215-5.12 8.572 2.716.528 5.016 1.188 6.902 1.98l3.282-15.39zm53.13 24.273c1.395-.076 2.724-.566 3.988-1.471a10.361 10.361 0 0 0 3.055-3.452c.774-1.395 1.16-2.867 1.16-4.413 0-1.547-.471-2.32-1.414-2.32-1.358 0-2.688 1.188-3.99 3.565-1.3 2.376-2.234 5.073-2.8 8.09zm18.161 10.014c1.396 0 2.565-.415 3.508-1.244.943-.83 1.415-2.17 1.415-4.018 0-1.131-.113-2.715-.34-4.752-.377-4.3-.622-7.186-.735-8.657-.905 2.98-2.433 6.544-4.583 10.694.867.452 1.301 1.112 1.301 1.98 0 .717-.236 1.358-.707 1.924-.472.565-1.066.848-1.782.848-.793 0-1.302-.245-1.528-.735 0 1.358.273 2.357.82 2.999.547.64 1.424.961 2.631.961zm27.498-.735c.906 0 1.81-.519 2.716-1.556.906-1.037 1.698-2.452 2.377-4.244.679-1.791 1.169-3.781 1.47-5.969-1.018-.226-1.527-1.018-1.527-2.376 0-1.547.585-2.565 1.754-3.056-.075-1.244-.264-2.102-.566-2.574-.302-.471-.83-.707-1.584-.707-1.245 0-2.452.905-3.621 2.716-1.17 1.81-2.113 3.98-2.83 6.506-.716 2.528-1.074 4.753-1.074 6.677 0 1.81.207 3.027.622 3.65.415.622 1.17.933 2.263.933zm64.955-9.28c1.433-.037 2.781-.509 4.045-1.414 1.264-.905 2.282-2.065 3.055-3.48.774-1.414 1.16-2.895 1.16-4.441 0-1.547-.471-2.32-1.414-2.32-1.32 0-2.631 1.198-3.933 3.593-1.3 2.395-2.272 5.083-2.913 8.063z"/>
    </g>
</svg>
